<?xml version="1.0" encoding="utf-8"?>
<svg viewBox="0 0 1420 240" height="240" width="1420" id="svg2" version="1.1" xmlns="http://www.w3.org/2000/svg">
  <defs id="defs6">
    <clipPath id="clipPath18" clipPathUnits="userSpaceOnUse">
      <path id="path16" d="M 0,841.89 H 1190.55 V 0 H 0 Z"/>
    </clipPath>
  </defs>
  <g transform="matrix(1.333333, 0, 0, -1.333333, -90.299294, 676.607239)" id="g10">
    <g id="g12">
      <g clip-path="url(#clipPath18)" id="g14">
        <g transform="translate(892.5137,362.3614)" id="g20">
          <path id="path22" style="fill:#f9a72b;fill-opacity:1;fill-rule:nonzero;stroke:none" d="m 0,0 v -19.175 h -61.761 l 0.017,16.048 c 18.294,29.919 29.167,48.434 32.617,55.544 3.45,7.108 5.176,12.654 5.176,16.638 0,3.057 -0.522,5.338 -1.565,6.843 -1.045,1.505 -2.632,2.258 -4.765,2.258 -2.135,0 -3.723,-0.834 -4.766,-2.501 -1.044,-1.667 -1.565,-4.979 -1.565,-9.934 v -10.7 h -25.149 v 4.1 c 0,6.298 0.323,11.265 0.973,14.901 0.647,3.636 2.245,7.214 4.793,10.734 2.547,3.519 5.858,6.183 9.934,7.99 4.076,1.806 8.962,2.709 14.66,2.709 11.161,0 19.601,-2.768 25.322,-8.302 5.72,-5.535 8.58,-12.54 8.58,-21.016 0,-6.438 -1.61,-13.246 -4.829,-20.424 C -5.548,38.533 -15.031,23.296 -30.778,0 Z"/>
        </g>
        <g transform="translate(941.5615,427.0401)" id="g24">
          <path id="path26" style="fill:#f9a72b;fill-opacity:1;fill-rule:nonzero;stroke:none" d="m 0,0 c 0,5.975 -0.29,9.714 -0.868,11.22 -0.58,1.504 -1.935,2.258 -4.065,2.258 -2.084,0 -3.463,-0.799 -4.133,-2.397 C -9.738,9.483 -10.073,5.789 -10.073,0 v -54.884 c 0,-6.53 0.312,-10.467 0.937,-11.809 0.625,-1.345 1.98,-2.016 4.065,-2.016 2.084,0 3.449,0.787 4.098,2.362 0.648,1.575 0.973,5.118 0.973,10.63 z m 28.066,-9.448 v -37.516 c 0,-8.522 -0.462,-14.727 -1.388,-18.618 -0.928,-3.891 -2.849,-7.527 -5.767,-10.907 -2.918,-3.382 -6.438,-5.814 -10.559,-7.295 -4.123,-1.482 -8.732,-2.223 -13.826,-2.223 -6.715,0 -12.297,0.776 -16.743,2.327 -4.446,1.551 -7.989,3.971 -10.629,7.26 -2.64,3.288 -4.515,6.75 -5.628,10.386 -1.111,3.636 -1.667,9.414 -1.667,17.334 v 39.252 c 0,10.327 0.892,18.062 2.675,23.203 1.782,5.141 5.325,9.263 10.629,12.367 5.303,3.102 11.73,4.654 19.279,4.654 6.16,0 11.671,-1.077 16.535,-3.231 4.863,-2.153 8.498,-4.782 10.907,-7.884 2.407,-3.104 4.04,-6.6 4.897,-10.491 0.857,-3.89 1.285,-10.097 1.285,-18.618"/>
        </g>
        <g transform="translate(1040.2129,362.3614)" id="g28">
          <path id="path30" style="fill:#f9a72b;fill-opacity:1;fill-rule:nonzero;stroke:none" d="m 0,0 v -19.175 h -61.761 l 0.017,16.048 c 18.294,29.919 29.167,48.434 32.617,55.544 3.45,7.108 5.176,12.654 5.176,16.638 0,3.057 -0.522,5.338 -1.565,6.843 -1.045,1.505 -2.632,2.258 -4.765,2.258 -2.135,0 -3.723,-0.834 -4.766,-2.501 -1.044,-1.667 -1.565,-4.979 -1.565,-9.934 v -10.7 h -25.149 v 4.1 c 0,6.298 0.323,11.265 0.973,14.901 0.647,3.636 2.245,7.214 4.793,10.734 2.547,3.519 5.858,6.183 9.934,7.99 4.076,1.806 8.962,2.709 14.66,2.709 11.161,0 19.601,-2.768 25.322,-8.302 5.72,-5.535 8.58,-12.54 8.58,-21.016 0,-6.438 -1.61,-13.246 -4.829,-20.424 C -5.548,38.533 -15.031,23.296 -30.778,0 Z"/>
        </g>
        <g transform="translate(1089.2607,427.0401)" id="g32">
          <path id="path34" style="fill:#f9a72b;fill-opacity:1;fill-rule:nonzero;stroke:none" d="m 0,0 c 0,5.975 -0.29,9.714 -0.868,11.22 -0.58,1.504 -1.935,2.258 -4.065,2.258 -2.084,0 -3.463,-0.799 -4.133,-2.397 C -9.738,9.483 -10.073,5.789 -10.073,0 v -54.884 c 0,-6.53 0.312,-10.467 0.937,-11.809 0.625,-1.345 1.98,-2.016 4.065,-2.016 2.084,0 3.449,0.787 4.098,2.362 0.648,1.575 0.973,5.118 0.973,10.63 z m 28.066,-9.448 v -37.516 c 0,-8.522 -0.462,-14.727 -1.388,-18.618 -0.928,-3.891 -2.849,-7.527 -5.767,-10.907 -2.918,-3.382 -6.438,-5.814 -10.559,-7.295 -4.123,-1.482 -8.732,-2.223 -13.826,-2.223 -6.715,0 -12.297,0.776 -16.743,2.327 -4.446,1.551 -7.989,3.971 -10.629,7.26 -2.64,3.288 -4.515,6.75 -5.628,10.386 -1.111,3.636 -1.667,9.414 -1.667,17.334 v 39.252 c 0,10.327 0.892,18.062 2.675,23.203 1.782,5.141 5.325,9.263 10.629,12.367 5.303,3.102 11.73,4.654 19.279,4.654 6.16,0 11.671,-1.077 16.535,-3.231 4.863,-2.153 8.498,-4.782 10.907,-7.884 2.407,-3.104 4.04,-6.6 4.897,-10.491 0.857,-3.89 1.285,-10.097 1.285,-18.618"/>
        </g>
        <g transform="translate(89.0674,456.1446)" id="g36">
          <path id="path38" style="fill:#0ba94d;fill-opacity:1;fill-rule:nonzero;stroke:none" d="M 0,0 H 100.683 V -22.548 H 29.445 V -44.035 H 99.356 V -65.521 H 29.445 v -25.202 h 73.095 v -22.548 H 0 Z"/>
        </g>
        <g transform="translate(304.04,456.1446)" id="g40">
          <path id="path42" style="fill:#0ba94d;fill-opacity:1;fill-rule:nonzero;stroke:none" d="m 0,0 v -22.548 h -37.748 v -90.723 h -29.445 v 90.723 h -37.509 V 0 Z"/>
        </g>
        <g transform="translate(346.749,370.7735)" id="g44">
          <path id="path46" style="fill:#404748;fill-opacity:1;fill-rule:nonzero;stroke:none" d="M 0,0 57.299,0.53 57.121,42.443 42.974,56.59 0.531,56.768 Z M 56.593,86.831 85.597,57.829 v -84.888 h -114.6 v 113.18 z"/>
        </g>
        <g transform="translate(445.0781,441.335)" id="g48">
          <path id="path50" style="fill:#404748;fill-opacity:1;fill-rule:nonzero;stroke:none" d="M 0,0 H 42.443 V 15.56 H 71.445 V 0 H 113.18 V -28.296 H 70.735 V -97.62 H 43.857 v 70.736 H 0 Z"/>
        </g>
        <g transform="translate(453.5674,408.793)" id="g52">
          <path id="path54" style="fill:#404748;fill-opacity:1;fill-rule:nonzero;stroke:none" d="M 0,0 H 26.879 L 21.573,-66.14 -7.606,-66.67 Z"/>
        </g>
        <g transform="translate(524.3037,407.3809)" id="g56">
          <path id="path58" style="fill:#404748;fill-opacity:1;fill-rule:nonzero;stroke:none" d="m 0,0 h 26.883 l 8.488,-65.083 H 7.075 Z"/>
        </g>
        <g transform="translate(523.4209,477.9424)" id="g60">
          <path id="path62" style="fill:#404748;fill-opacity:1;fill-rule:nonzero;stroke:none" d="m 0,0 12.202,0.175 v -15.561 h 14.147 v -12.732 l -25.288,0.53 z"/>
        </g>
        <g transform="translate(545.5254,499.3389)" id="g64">
          <path id="path66" style="fill:#404748;fill-opacity:1;fill-rule:nonzero;stroke:none" d="M 0,0 H 26.883 V -29.71 L 0.178,-29.885 Z"/>
        </g>
        <g transform="translate(572.7607,456.7207)" id="g68">
          <path id="path70" style="fill:#404748;fill-opacity:1;fill-rule:nonzero;stroke:none" d="m 0,0 h 79.051 l 27.853,-27.853 v -86.745 H -1.062 v 29.712 h 79.051 v 40.321 l -14.59,14.589 H -0.53 Z"/>
        </g>
        <g transform="translate(692.6631,449.294)" id="g72">
          <path id="path74" style="fill:#404748;fill-opacity:1;fill-rule:nonzero;stroke:none" d="M 0,0 63.136,-7.428 V -35.017 L 0.53,-28.119 Z"/>
        </g>
        <g transform="translate(777.5508,449.8242)" id="g76">
          <path id="path78" style="fill:#404748;fill-opacity:1;fill-rule:nonzero;stroke:none" d="M 0,0 29.18,0.53 V -78.521 L 0.795,-106.905 h -85.683 v 28.916 h 71.094 l 12.997,12.998 z"/>
        </g>
        <g transform="translate(346.749,370.7735)" id="g80">
          <path id="path82" style="fill:#404748;fill-opacity:1;fill-rule:nonzero;stroke:none" d="M 0,0 57.299,0.53 57.121,42.443 42.974,56.59 0.531,56.768 Z M 56.593,86.831 85.597,57.829 v -84.888 h -114.6 v 113.18 z"/>
        </g>
        <g transform="translate(445.0781,441.335)" id="g84">
          <path id="path86" style="fill:#404748;fill-opacity:1;fill-rule:nonzero;stroke:none" d="M 0,0 H 42.443 V 15.56 H 71.445 V 0 H 113.18 V -28.296 H 70.735 V -97.62 H 43.857 v 70.736 H 0 Z"/>
        </g>
        <g transform="translate(453.5674,408.793)" id="g88">
          <path id="path90" style="fill:#404748;fill-opacity:1;fill-rule:nonzero;stroke:none" d="M 0,0 H 26.879 L 21.573,-66.14 -7.606,-66.67 Z"/>
        </g>
        <g transform="translate(524.3037,407.3809)" id="g92">
          <path id="path94" style="fill:#404748;fill-opacity:1;fill-rule:nonzero;stroke:none" d="m 0,0 h 26.883 l 8.488,-65.083 H 7.075 Z"/>
        </g>
        <g transform="translate(523.4209,477.9424)" id="g96">
          <path id="path98" style="fill:#404748;fill-opacity:1;fill-rule:nonzero;stroke:none" d="m 0,0 12.202,0.175 v -15.561 h 14.147 v -12.732 l -25.288,0.53 z"/>
        </g>
        <g transform="translate(545.5254,499.3389)" id="g100">
          <path id="path102" style="fill:#404748;fill-opacity:1;fill-rule:nonzero;stroke:none" d="M 0,0 H 26.883 V -29.71 L 0.178,-29.885 Z"/>
        </g>
        <g transform="translate(572.7607,456.7207)" id="g104">
          <path id="path106" style="fill:#404748;fill-opacity:1;fill-rule:nonzero;stroke:none" d="m 0,0 h 79.051 l 27.853,-27.853 v -86.745 H -1.062 v 29.712 h 79.051 v 40.321 l -14.59,14.589 H -0.53 Z"/>
        </g>
        <g transform="translate(692.6631,449.294)" id="g108">
          <path id="path110" style="fill:#404748;fill-opacity:1;fill-rule:nonzero;stroke:none" d="M 0,0 63.136,-7.428 V -35.017 L 0.53,-28.119 Z"/>
        </g>
        <g transform="translate(777.5508,449.8242)" id="g112">
          <path id="path114" style="fill:#404748;fill-opacity:1;fill-rule:nonzero;stroke:none" d="M 0,0 29.18,0.53 V -78.521 L 0.795,-106.905 h -85.683 v 28.916 h 71.094 l 12.997,12.998 z"/>
        </g>
      </g>
    </g>
  </g>
</svg>